<svg width="30" height="30" viewBox="0 0 30 30" fill="none" xmlns="http://www.w3.org/2000/svg">
<g clip-path="url(#clip0_1701_803)">
<path d="M9.31477 17.5227C3.98825 18.0041 -0.0698038 22.5049 0.000910149 27.8526V28.1238C0.000910149 29.1592 0.840279 29.9986 1.87568 29.9986C2.91108 29.9986 3.75045 29.1592 3.75045 28.1238V27.7777C3.69409 24.4942 6.11723 21.6942 9.37476 21.2785C12.8134 20.9375 15.8774 23.4486 16.2184 26.8873C16.2385 27.0906 16.2487 27.2947 16.2489 27.499V28.1239C16.2489 29.1593 17.0883 29.9987 18.1237 29.9987C19.1591 29.9987 19.9984 29.1593 19.9984 28.1239V27.499C19.9923 21.9706 15.5057 17.4939 9.97738 17.5C9.75627 17.5002 9.53529 17.5078 9.31477 17.5227Z" fill="#40A8A2"/>
<path d="M9.99966 15.0001C14.1413 15.0001 17.4987 11.6426 17.4987 7.50103C17.4987 3.35943 14.1413 0.00195312 9.99966 0.00195312C5.85806 0.00195312 2.50058 3.35943 2.50058 7.50103C2.50474 11.641 5.85976 14.996 9.99966 15.0001ZM9.99966 3.75149C12.0705 3.75149 13.7492 5.43023 13.7492 7.50103C13.7492 9.57183 12.0705 11.2506 9.99966 11.2506C7.92886 11.2506 6.25012 9.57183 6.25012 7.50103C6.25012 5.43023 7.92886 3.75149 9.99966 3.75149Z" fill="#40A8A2"/>
<path d="M27.4976 9.84473C26.0495 9.91685 24.9321 11.146 24.9979 12.5944C25.0637 11.146 23.9463 9.91685 22.4982 9.84473C21.0501 9.91685 19.9327 11.146 19.9985 12.5944C19.9985 14.7566 22.8181 17.29 24.223 18.4174C24.6759 18.7801 25.3198 18.7801 25.7728 18.4174C27.1776 17.2925 29.9973 14.7566 29.9973 12.5944C30.0631 11.146 28.9457 9.91691 27.4976 9.84473Z" fill="#40A8A2"/>
</g>
<defs>
<clipPath id="clip0_1701_803">
<rect width="30" height="30" fill="white"/>
</clipPath>
</defs>
</svg>
